<?xml version="1.0" encoding="UTF-8"?> <svg xmlns="http://www.w3.org/2000/svg" xmlns:xlink="http://www.w3.org/1999/xlink" id="a" viewBox="0 0 165 46"><defs><style>.j{fill:url(#e);}.k{fill:url(#d);}.l{fill:url(#g);}.m{fill:url(#f);}.n{fill:url(#i);}.o{fill:url(#h);}.p{fill:url(#c);}.q{fill:url(#b);}.r{fill:#0f0f0f;}.s{fill:#2f205f;}</style><linearGradient id="b" x1="-1.91" y1="23.2" x2="65.72" y2="22.48" gradientTransform="matrix(1, 0, 0, 1, 0, 0)" gradientUnits="userSpaceOnUse"><stop offset="0" stop-color="#ffa875"></stop><stop offset=".98" stop-color="#f46c0a"></stop></linearGradient><linearGradient id="c" x1="-1.81" y1="32.19" x2="65.81" y2="31.47" xlink:href="#b"></linearGradient><linearGradient id="d" x1="-1.87" y1="26.76" x2="65.76" y2="26.04" xlink:href="#b"></linearGradient><linearGradient id="e" x1="-1.88" y1="25.5" x2="65.74" y2="24.78" xlink:href="#b"></linearGradient><linearGradient id="f" x1="116.51" y1="29.31" x2="133.75" y2="29.86" gradientTransform="matrix(1, 0, 0, 1, 0, 0)" gradientUnits="userSpaceOnUse"><stop offset="0" stop-color="#ffa875"></stop><stop offset="1" stop-color="#f46c0a"></stop></linearGradient><linearGradient id="g" x1="116.65" y1="24.8" x2="133.9" y2="25.35" xlink:href="#f"></linearGradient><linearGradient id="h" x1="116.8" y1="20.23" x2="134.04" y2="20.78" xlink:href="#f"></linearGradient><linearGradient id="i" x1="116.62" y1="25.9" x2="133.86" y2="26.45" xlink:href="#f"></linearGradient></defs><g><path d="M3.4,39.61s34.01,6.63,54.25-28.74l-3.74-1.02,7.31-7.58,2.55,9.79-4.08-.85S48.81,55.94,3.4,39.61Z" style="fill:url(#b);"></path><polygon points="21.33 22.74 21.33 41.08 27.58 41.08 27.58 26.83 21.33 22.74" style="fill:url(#c);"></polygon><polygon points="31.1 15.26 31.1 37.56 37.34 33.6 37.34 19.35 31.1 15.26" style="fill:url(#d);"></polygon><polygon points="40.77 15.87 40.77 34.22 47.02 28.29 47.02 19.97 40.77 15.87" style="fill:url(#e);"></polygon></g><g><path d="M72.92,28.93h-6.14l-.97,3.16h-5.26l6.97-19.11h4.65l7.01,19.11h-5.28l-.97-3.16Zm-1.22-3.96l-1.86-6.04-1.85,6.04h3.72Z" style="fill:#2f205f;"></path><path d="M93.93,16.94h-5.7v15.15h-4.91v-15.15h-5.55v-3.96h16.16v3.96Z" style="fill:#2f205f;"></path><path d="M109.98,30.98c-.71,.39-1.58,.72-2.62,.98-1.04,.26-2.19,.39-3.47,.39-1.72,0-3.22-.36-4.49-1.08-1.27-.72-2.25-1.78-2.94-3.18-.69-1.4-1.04-3.08-1.04-5.05v-.98c0-1.95,.35-3.63,1.06-5.04,.7-1.41,1.68-2.48,2.92-3.21,1.24-.73,2.66-1.1,4.24-1.1,2.58,0,4.5,.59,5.77,1.77,1.26,1.18,1.99,2.82,2.19,4.92h-4.69c-.13-.95-.43-1.65-.9-2.09-.47-.44-1.2-.66-2.19-.66-1.05,0-1.88,.45-2.5,1.34-.62,.89-.93,2.24-.93,4.03v1.01c0,1.84,.3,3.19,.91,4.06,.61,.87,1.59,1.31,2.96,1.31,.59,0,1.09-.06,1.5-.19,.42-.13,.73-.28,.94-.45v-2.6h-3.03v-3.47h7.94v8.09c-.39,.41-.93,.81-1.64,1.2Z" style="fill:#2f205f;"></path></g><g><path d="M137.18,32.09V12.98h4.87v19.11h-4.87Z" style="fill:#2f205f;"></path><path d="M160.72,31.88v.21h-5.25l-3.22-6.46h-2.27v6.46h-4.9V12.98h7.71c1.49,0,2.78,.22,3.87,.66,1.09,.44,1.94,1.1,2.54,1.96,.6,.87,.9,1.92,.9,3.15,0,1.47-.28,2.63-.83,3.47-.56,.84-1.37,1.53-2.45,2.07l3.9,7.59Zm-10.74-10.23h2.81c.8,0,1.4-.2,1.8-.6,.41-.4,.61-.98,.61-1.75s-.21-1.33-.63-1.75c-.42-.41-1.02-.62-1.79-.62h-2.81v4.71Z" style="fill:#2f205f;"></path></g><ellipse cx="124.46" cy="15.86" rx="9.08" ry="3.01" style="fill:#2f205f;"></ellipse><g><path d="M120.89,29.11v2.94s9.97,.49,12.66-2.06v-2.74s-1.65,1.94-12.66,1.86Z" style="fill:url(#f);"></path><path d="M120.89,24.6v2.94s9.97,.49,12.66-2.06v-2.74s-1.65,1.94-12.66,1.86Z" style="fill:url(#g);"></path><path d="M120.89,20.02v2.94s9.97,.49,12.66-2.06v-2.74s-1.65,1.94-12.66,1.86Z" style="fill:url(#h);"></path><rect x="120.89" y="20.02" width="1.43" height="12.07" style="fill:url(#i);"></rect></g><path d="M115.38,27.25v2.68s.86,1.04,3.19,1.58v-3.04s-1.75-.25-3.19-1.22Z" style="fill:#2f205f;"></path><path d="M115.38,22.74v2.68s.86,1.04,3.19,1.58v-3.04s-1.75-.25-3.19-1.22Z" style="fill:#2f205f;"></path><path d="M115.38,18.22v2.68s.86,1.04,3.19,1.58v-3.04s-1.75-.25-3.19-1.22Z" style="fill:#2f205f;"></path><path d="M18.87,30.99c-.17-.22-4.11-5.4-2.33-9.54,1.1-2.55,4.12-4.11,8.99-4.64,.37-.96,2.52-6.03,5.99-6.35,2.14-.2,4.3,1.45,6.44,4.9,.54-1.02,2.14-3.54,4.81-3.93,2.38-.35,4.95,1.09,7.65,4.28l-.38,.32c-2.58-3.05-4.99-4.43-7.19-4.11-3.02,.44-4.62,4.01-4.64,4.05l-.19,.44-.25-.42c-2.11-3.54-4.2-5.23-6.2-5.05-3.44,.32-5.6,6.11-5.62,6.17l-.05,.15-.16,.02c-4.77,.49-7.71,1.95-8.74,4.35-1.67,3.88,2.23,8.99,2.27,9.04l-.4,.31Z"></path><circle cx="18.98" cy="30.82" r="1.09"></circle><circle cx="25.74" cy="17.05" r="1.09"></circle><circle cx="37.81" cy="16.08" r="1.09"></circle><circle cx="50.23" cy="15.96" r="1.09"></circle><g><path d="M65.46,41.94c0-.38-.13-.68-.4-.9-.27-.22-.76-.43-1.47-.63-.71-.2-1.23-.42-1.56-.65-.47-.33-.7-.77-.7-1.31s.22-.95,.65-1.28c.43-.33,.99-.49,1.66-.49,.46,0,.87,.09,1.23,.26,.36,.18,.64,.42,.84,.74,.2,.31,.3,.67,.3,1.05h-.59c0-.47-.16-.85-.48-1.13s-.75-.43-1.29-.43-.94,.12-1.26,.35-.47,.54-.47,.92c0,.35,.14,.64,.42,.86,.28,.22,.73,.42,1.35,.58,.62,.17,1.08,.34,1.4,.52,.32,.18,.56,.4,.72,.65,.16,.25,.24,.55,.24,.89,0,.54-.22,.98-.65,1.3-.43,.33-1,.49-1.71,.49-.49,0-.93-.09-1.33-.26-.4-.17-.71-.42-.92-.73-.21-.31-.31-.67-.31-1.07h.58c0,.49,.18,.87,.54,1.15,.36,.28,.84,.42,1.45,.42,.54,0,.97-.12,1.29-.35,.32-.24,.49-.55,.49-.94Z" style="fill:#0f0f0f;"></path><path d="M78.67,40.56c0,.63-.11,1.19-.33,1.67-.22,.48-.53,.85-.94,1.11-.41,.26-.88,.39-1.41,.39-.8,0-1.45-.29-1.95-.86-.49-.57-.74-1.35-.74-2.33v-.71c0-.63,.11-1.18,.33-1.66,.22-.48,.54-.86,.94-1.11,.41-.26,.87-.39,1.4-.39s1,.13,1.4,.38c.4,.26,.72,.62,.94,1.08,.22,.47,.34,1.01,.34,1.62v.82Zm-.58-.75c0-.83-.19-1.48-.56-1.95-.37-.47-.89-.7-1.54-.7s-1.15,.24-1.53,.71c-.38,.47-.57,1.13-.57,1.97v.72c0,.82,.19,1.46,.57,1.94,.38,.48,.89,.72,1.54,.72s1.17-.24,1.54-.71c.37-.47,.55-1.13,.55-1.97v-.73Z" style="fill:#0f0f0f;"></path><path d="M87.01,43.14h3.4v.49h-3.98v-6.88h.59v6.39Z" style="fill:#0f0f0f;"></path><path d="M102.29,36.75v4.7c0,.46-.11,.87-.31,1.21-.2,.34-.49,.61-.85,.79-.37,.18-.79,.28-1.26,.28-.72,0-1.3-.2-1.74-.59-.44-.4-.66-.94-.68-1.64v-4.74h.58v4.65c0,.58,.17,1.03,.5,1.35,.33,.32,.78,.48,1.35,.48s1.01-.16,1.34-.48c.33-.32,.49-.77,.49-1.34v-4.66h.59Z" style="fill:#0f0f0f;"></path><path d="M114.87,37.24h-2.36v6.39h-.58v-6.39h-2.35v-.49h5.29v.49Z" style="fill:#0f0f0f;"></path><path d="M122.97,43.63h-.58v-6.88h.58v6.88Z" style="fill:#0f0f0f;"></path><path d="M136.21,40.56c0,.63-.11,1.19-.33,1.67-.22,.48-.53,.85-.94,1.11-.41,.26-.88,.39-1.41,.39-.8,0-1.45-.29-1.95-.86-.49-.57-.74-1.35-.74-2.33v-.71c0-.63,.11-1.18,.33-1.66,.22-.48,.54-.86,.94-1.11,.41-.26,.87-.39,1.4-.39s1,.13,1.4,.38c.4,.26,.72,.62,.94,1.08,.22,.47,.34,1.01,.34,1.62v.82Zm-.58-.75c0-.83-.19-1.48-.56-1.95-.37-.47-.89-.7-1.54-.7s-1.15,.24-1.53,.71c-.38,.47-.57,1.13-.57,1.97v.72c0,.82,.19,1.46,.57,1.94,.38,.48,.89,.72,1.54,.72s1.17-.24,1.54-.71c.37-.47,.55-1.13,.55-1.97v-.73Z" style="fill:#0f0f0f;"></path><path d="M149.08,43.63h-.58l-3.95-5.89v5.89h-.59v-6.88h.59l3.96,5.89v-5.89h.58v6.88Z" style="fill:#0f0f0f;"></path><path d="M161.01,41.94c0-.38-.13-.68-.4-.9-.27-.22-.76-.43-1.47-.63-.71-.2-1.23-.42-1.56-.65-.47-.33-.7-.77-.7-1.31s.22-.95,.65-1.28c.43-.33,.99-.49,1.66-.49,.46,0,.87,.09,1.23,.26,.36,.18,.64,.42,.84,.74,.2,.31,.3,.67,.3,1.05h-.59c0-.47-.16-.85-.48-1.13s-.75-.43-1.29-.43-.94,.12-1.26,.35-.47,.54-.47,.92c0,.35,.14,.64,.42,.86,.28,.22,.73,.42,1.35,.58,.62,.17,1.08,.34,1.4,.52,.32,.18,.56,.4,.72,.65,.16,.25,.24,.55,.24,.89,0,.54-.22,.98-.65,1.3-.43,.33-1,.49-1.71,.49-.49,0-.93-.09-1.33-.26-.4-.17-.71-.42-.92-.73-.21-.31-.31-.67-.31-1.07h.58c0,.49,.18,.87,.54,1.15,.36,.28,.84,.42,1.45,.42,.54,0,.97-.12,1.29-.35,.32-.24,.49-.55,.49-.94Z" style="fill:#0f0f0f;"></path></g></svg> 